<svg width="25" height="23" viewBox="0 0 25 23" fill="none" xmlns="http://www.w3.org/2000/svg">
<path d="M11.9488 11.2613C12.2526 11.5825 12.7474 11.5825 13.0556 11.2613L17.7821 6.30467C19.1536 4.8637 19.0755 2.47655 17.5391 1.14842C16.2023 -0.0104308 14.2101 0.197903 12.9861 1.48262L12.5 1.99044L12.0182 1.48697C10.7943 0.197903 8.80208 -0.0104308 7.46528 1.14842C5.93316 2.47655 5.85069 4.8637 7.22222 6.30467L11.9488 11.2613ZM24.5356 14.6293C24.0234 14.1649 23.2248 14.1953 22.6866 14.6293L18.6762 17.8368C18.1858 18.2318 17.5738 18.4444 16.9401 18.4444H11.8056C11.4236 18.4444 11.1111 18.1319 11.1111 17.75C11.1111 17.368 11.4236 17.0555 11.8056 17.0555H15.204C15.8941 17.0555 16.5365 16.5825 16.6493 15.901C16.7925 15.033 16.1241 14.2778 15.2778 14.2778H8.33333C7.16146 14.2778 6.02865 14.6814 5.11719 15.4193L3.09896 17.0555H0.694444C0.3125 17.0555 0 17.368 0 17.75V21.9167C0 22.2986 0.3125 22.6111 0.694444 22.6111H16.1806C16.8099 22.6111 17.4219 22.3984 17.9167 22.0035L24.4792 16.7517C25.1389 16.2265 25.191 15.2196 24.5356 14.6293Z" fill="black"/>
</svg>
