<svg width="92" height="83" viewBox="0 0 92 83" fill="none" xmlns="http://www.w3.org/2000/svg">
<path d="M12.2301 32.2976C18.7322 32.2976 24.0032 27.4332 24.0032 21.4327C24.0032 15.4322 18.7322 10.5679 12.2301 10.5679C5.72803 10.5679 0.457031 15.4322 0.457031 21.4327C0.457031 27.4332 5.72803 32.2976 12.2301 32.2976Z" fill="#3F3D56"/>
<path d="M79.7702 35.9192C86.2723 35.9192 91.5433 31.0548 91.5433 25.0543C91.5433 19.0538 86.2723 14.1895 79.7702 14.1895C73.2681 14.1895 67.9971 19.0538 67.9971 25.0543C67.9971 31.0548 73.2681 35.9192 79.7702 35.9192Z" fill="#3F3D56"/>
<path d="M79.9766 13.8081C77.7152 13.8082 75.5017 14.4093 73.6007 15.5395C71.6997 16.6698 70.1917 18.2813 69.2568 20.1816C71.2722 18.5247 73.8434 17.5573 76.5396 17.4415C79.2358 17.3257 81.8933 18.0685 84.0667 19.5454C86.2402 21.0224 87.7976 23.1438 88.4781 25.5542C89.1586 27.9646 88.9209 30.5177 87.8046 32.7856C89.5873 31.3213 90.8455 29.3915 91.4125 27.2521C91.9795 25.1127 91.8285 22.8648 90.9794 20.8065C90.1304 18.7482 88.6234 16.9766 86.6584 15.7268C84.6934 14.4769 82.3631 13.8078 79.9766 13.8081Z" fill="#EC1560"/>
<path d="M12.023 10.186C14.2844 10.1861 16.4979 10.7872 18.3988 11.9174C20.2998 13.0477 21.8079 14.6593 22.7427 16.5595C20.7273 14.9026 18.1561 13.9352 15.4599 13.8194C12.7637 13.7036 10.1063 14.4464 7.93283 15.9234C5.75938 17.4003 4.20194 19.5217 3.52143 21.9321C2.84093 24.3426 3.0787 26.8956 4.19491 29.1635C2.41226 27.6992 1.15402 25.7694 0.587032 23.63C0.0200417 21.4907 0.171088 19.2428 1.02014 17.1844C1.86919 15.1261 3.37613 13.3546 5.34115 12.1047C7.30617 10.8548 9.63645 10.1857 12.023 10.186Z" fill="#EC1560"/>
<path d="M44.0376 82.9998C63.8861 82.9998 79.9765 68.1507 79.9765 49.8334C79.9765 31.5161 63.8861 16.667 44.0376 16.667C24.189 16.667 8.09863 31.5161 8.09863 49.8334C8.09863 68.1507 24.189 82.9998 44.0376 82.9998Z" fill="#3F3D56"/>
<path d="M52.7717 50.9679C54.6331 48.6619 57.4091 47.1308 60.4915 46.7103C63.5739 46.2898 66.7113 47.014 69.216 48.7244C70.6078 46.9999 71.4139 44.933 71.532 42.7855C71.6502 40.638 71.0752 38.5064 69.8799 36.6607C68.6845 34.8149 66.9226 33.338 64.8171 32.4169C62.7117 31.4958 60.3574 31.172 58.0524 31.4864C55.7474 31.8009 53.5954 32.7395 51.8688 34.1833C50.1421 35.6272 48.9186 37.5114 48.353 39.5974C47.7875 41.6834 47.9054 43.8773 48.6918 45.9014C49.4782 47.9255 50.8977 49.6888 52.7707 50.9679H52.7717Z" fill="white"/>
<path d="M25.301 53.0646C27.1623 50.7586 29.9384 49.2275 33.0208 48.807C36.1032 48.3864 39.2406 49.1107 41.7453 50.8211C43.1371 49.0966 43.9432 47.0297 44.0613 44.8822C44.1795 42.7347 43.6045 40.6031 42.4092 38.7573C41.2138 36.9116 39.4519 35.4346 37.3464 34.5136C35.241 33.5925 32.8867 33.2687 30.5817 33.5831C28.2767 33.8976 26.1247 34.8361 24.3981 36.28C22.6714 37.7239 21.4479 39.6081 20.8823 41.6941C20.3168 43.78 20.4347 45.974 21.2211 47.9981C22.0075 50.0222 23.427 51.7855 25.3 53.0646H25.301Z" fill="white"/>
<path d="M33.0904 46.2117C35.4859 46.2117 37.4278 44.4196 37.4278 42.2089C37.4278 39.9982 35.4859 38.2061 33.0904 38.2061C30.6949 38.2061 28.7529 39.9982 28.7529 42.2089C28.7529 44.4196 30.6949 46.2117 33.0904 46.2117Z" fill="#3F3D56"/>
<path d="M61.1812 43.1624C63.5767 43.1624 65.5187 41.3703 65.5187 39.1596C65.5187 36.9489 63.5767 35.1567 61.1812 35.1567C58.7857 35.1567 56.8438 36.9489 56.8438 39.1596C56.8438 41.3703 58.7857 43.1624 61.1812 43.1624Z" fill="#3F3D56"/>
<path d="M46.7232 53.0738C47.978 53.0738 48.9952 52.1351 48.9952 50.9771C48.9952 49.8191 47.978 48.8804 46.7232 48.8804C45.4684 48.8804 44.4512 49.8191 44.4512 50.9771C44.4512 52.1351 45.4684 53.0738 46.7232 53.0738Z" fill="#FF6584"/>
<path d="M29.345 19.8477C27.8476 17.6228 26.8419 15.0094 27.1534 12.406C27.4648 9.80263 29.3128 7.26254 32.0332 6.5161C34.7536 5.76967 38.1236 7.31572 38.6363 9.89164C41.3611 5.54397 45.6712 2.23124 50.7975 0.544626C53.175 -0.228494 56.3348 -0.403857 57.7097 1.5461C58.3901 2.51116 58.463 3.82334 59.3745 4.60961C60.8034 5.84229 63.0946 4.97406 65.0473 5.07946C67.7931 5.22757 70.0044 7.59249 70.3495 10.1116C70.6946 12.6307 69.4868 15.1605 67.703 17.0926C65.9193 19.0246 63.5981 20.4578 61.3096 21.8655" fill="#3F3D56"/>
</svg>
